HIERARCHY
ROOT newVegas:Hips
{
	OFFSET 0.000000 96.479958 0.000000
	CHANNELS 6 Xposition Yposition Zposition Xrotation Yrotation Zrotation
	JOINT newVegas:Pelvis
	{
		OFFSET 0.000000 0.000000 0.000000
		CHANNELS 3 Xrotation Yrotation Zrotation
		JOINT newVegas:LeftUpLeg
		{
			OFFSET 18.735201 -5.666702 -4.541200
			CHANNELS 3 Xrotation Yrotation Zrotation
			JOINT newVegas:LeftLeg
			{
				OFFSET -0.021200 -31.938179 0.493100
				CHANNELS 3 Xrotation Yrotation Zrotation
				JOINT newVegas:LeftFoot
				{
					OFFSET 0.021200 -31.938179 -4.336299
					CHANNELS 3 Xrotation Yrotation Zrotation
					JOINT newVegas:LeftToeBase
					{
						OFFSET 0.943001 -26.722000 15.023500
						CHANNELS 3 Xrotation Yrotation Zrotation
						End Site
						{
							OFFSET 0.000000 30.670183 0.000000
						}
					}
				}
				JOINT newVegas:Left_PantLeg
				{
					OFFSET 0.663870 -9.044666 -1.108900
					CHANNELS 3 Xrotation Yrotation Zrotation
					End Site
					{
						OFFSET 1.415995 20.635357 0.000000
					}
				}
			}
		}
		JOINT newVegas:RightUpLeg
		{
			OFFSET -18.735201 -5.666702 -4.541200
			CHANNELS 3 Xrotation Yrotation Zrotation
			JOINT newVegas:RightLeg
			{
				OFFSET 0.018946 -31.938133 0.493100
				CHANNELS 3 Xrotation Yrotation Zrotation
				JOINT newVegas:RightFoot
				{
					OFFSET -0.018946 -31.938126 -4.336299
					CHANNELS 3 Xrotation Yrotation Zrotation
					JOINT newVegas:RightToeBase
					{
						OFFSET -0.943001 -26.722004 15.023500
						CHANNELS 3 Xrotation Yrotation Zrotation
						End Site
						{
							OFFSET 0.000000 30.670187 0.000000
						}
					}
				}
				JOINT newVegas:Right_PantLeg
				{
					OFFSET -0.661674 -9.044716 -1.108900
					CHANNELS 3 Xrotation Yrotation Zrotation
					End Site
					{
						OFFSET -1.415958 20.635269 0.000000
					}
				}
			}
		}
	}
	JOINT newVegas:Spine
	{
		OFFSET 0.000000 10.199997 -0.299500
		CHANNELS 3 Xrotation Yrotation Zrotation
		JOINT newVegas:Spine1
		{
			OFFSET 0.000000 11.900002 -1.516600
			CHANNELS 3 Xrotation Yrotation Zrotation
			JOINT newVegas:Spine2
			{
				OFFSET 0.000000 13.600006 -2.842500
				CHANNELS 3 Xrotation Yrotation Zrotation
				JOINT newVegas:Neck
				{
					OFFSET 0.000000 9.624100 -2.890100
					CHANNELS 3 Xrotation Yrotation Zrotation
					JOINT newVegas:Head
					{
						OFFSET 0.000000 14.068802 -1.351900
						CHANNELS 3 Xrotation Yrotation Zrotation
						JOINT newVegas:Hair_Back
						{
							OFFSET 0.000000 3.231903 -17.524799
							CHANNELS 3 Xrotation Yrotation Zrotation
							End Site
							{
								OFFSET 0.000000 19.849884 0.000000
							}
						}
						JOINT newVegas:Hair_Front
						{
							OFFSET 0.000000 31.260406 4.573800
							CHANNELS 3 Xrotation Yrotation Zrotation
							JOINT newVegas:Hair_Front1
							{
								OFFSET 0.000000 2.284103 11.993300
								CHANNELS 3 Xrotation Yrotation Zrotation
								JOINT newVegas:Hair_Front2
								{
									OFFSET 0.000000 2.284103 11.993300
									CHANNELS 3 Xrotation Yrotation Zrotation
									End Site
									{
										OFFSET 0.000000 12.208862 0.000000
									}
								}
							}
						}
						JOINT newVegas:Jowel
						{
							OFFSET 0.000000 -7.458206 6.864100
							CHANNELS 3 Xrotation Yrotation Zrotation
							End Site
							{
								OFFSET 0.000000 19.849884 0.000000
							}
						}
					}
				}
				JOINT newVegas:LeftShoulder
				{
					OFFSET 15.263000 10.923401 -0.547700
					CHANNELS 3 Xrotation Yrotation Zrotation
					JOINT newVegas:LeftArm
					{
						OFFSET 25.438599 -2.830597 -13.032500
						CHANNELS 3 Xrotation Yrotation Zrotation
						JOINT newVegas:LeftForeArm
						{
							OFFSET 29.960503 0.000000 0.000000
							CHANNELS 3 Xrotation Yrotation Zrotation
							JOINT newVegas:LeftHand
							{
								OFFSET 27.849251 0.000000 0.000000
								CHANNELS 3 Xrotation Yrotation Zrotation
								JOINT newVegas:LeftHandThumb1
								{
									OFFSET 4.487587 -3.305161 6.305391
									CHANNELS 3 Xrotation Yrotation Zrotation
									JOINT newVegas:LeftHandThumb2
									{
										OFFSET 5.480453 -3.164139 3.164143
										CHANNELS 3 Xrotation Yrotation Zrotation
										JOINT newVegas:LeftHandThumb3
										{
											OFFSET 5.159721 -2.978973 2.978967
											CHANNELS 3 Xrotation Yrotation Zrotation
											End Site
											{
												OFFSET 2.494507 5.926697 1.738678
											}
										}
									}
								}
								JOINT newVegas:LeftHandIndex1
								{
									OFFSET 18.578728 -0.527832 5.208049
									CHANNELS 3 Xrotation Yrotation Zrotation
									JOINT newVegas:LeftHandIndex2
									{
										OFFSET 3.192009 0.000000 0.000000
										CHANNELS 3 Xrotation Yrotation Zrotation
										JOINT newVegas:LeftHandIndex3
										{
											OFFSET 3.835129 0.000000 0.000000
											CHANNELS 3 Xrotation Yrotation Zrotation
											End Site
											{
												OFFSET -0.034599 3.816971 0.371180
											}
										}
									}
								}
								JOINT newVegas:LeftHandMiddle1
								{
									OFFSET 18.476105 0.000000 0.000000
									CHANNELS 3 Xrotation Yrotation Zrotation
									JOINT newVegas:LeftHandMiddle2
									{
										OFFSET 3.324875 0.000000 0.000000
										CHANNELS 3 Xrotation Yrotation Zrotation
										JOINT newVegas:LeftHandMiddle3
										{
											OFFSET 4.596550 0.000000 0.000000
											CHANNELS 3 Xrotation Yrotation Zrotation
											End Site
											{
												OFFSET 0.057701 4.578827 0.399218
											}
										}
									}
								}
								JOINT newVegas:LeftHandRing1
								{
									OFFSET 17.732719 0.121887 -4.201567
									CHANNELS 3 Xrotation Yrotation Zrotation
									JOINT newVegas:LeftHandRing2
									{
										OFFSET 2.733170 0.000000 0.000000
										CHANNELS 3 Xrotation Yrotation Zrotation
										JOINT newVegas:LeftHandRing3
										{
											OFFSET 3.178268 0.000000 0.000000
											CHANNELS 3 Xrotation Yrotation Zrotation
											End Site
											{
												OFFSET 0.119102 3.170624 0.185394
											}
										}
									}
								}
								JOINT newVegas:LeftHandPinky1
								{
									OFFSET 15.989624 -0.606689 -7.535461
									CHANNELS 3 Xrotation Yrotation Zrotation
									JOINT newVegas:LeftHandPinky2
									{
										OFFSET 2.538986 0.000000 0.000000
										CHANNELS 3 Xrotation Yrotation Zrotation
										JOINT newVegas:LeftHandPinky3
										{
											OFFSET 2.593102 0.000000 0.000000
											CHANNELS 3 Xrotation Yrotation Zrotation
											End Site
											{
												OFFSET -0.150902 2.584198 0.152708
											}
										}
									}
								}
							}
							JOINT newVegas:Left_Sleeve
							{
								OFFSET 0.267448 -0.649796 0.577675
								CHANNELS 3 Xrotation Yrotation Zrotation
								End Site
								{
									OFFSET 0.000000 15.991241 0.000000
								}
							}
							JOINT newVegas:Left_CapeC
							{
								OFFSET 15.715958 -8.608795 -6.935905
								CHANNELS 3 Xrotation Yrotation Zrotation
								JOINT newVegas:Left_CapeC1
								{
									OFFSET 0.000000 -8.688499 0.000000
									CHANNELS 3 Xrotation Yrotation Zrotation
									End Site
									{
										OFFSET 0.000000 8.688499 0.000000
									}
								}
							}
						}
						JOINT newVegas:Left_CapeB
						{
							OFFSET 26.118385 -8.608795 -7.079235
							CHANNELS 3 Xrotation Yrotation Zrotation
							JOINT newVegas:Left_CapeB1
							{
								OFFSET 0.000000 -8.688499 0.000000
								CHANNELS 3 Xrotation Yrotation Zrotation
								End Site
								{
									OFFSET 0.000000 8.688499 0.000000
								}
							}
						}
						JOINT newVegas:Left_CapeA
						{
							OFFSET 5.115639 -8.608795 -10.395809
							CHANNELS 3 Xrotation Yrotation Zrotation
							JOINT newVegas:Left_CapeA1
							{
								OFFSET 0.000000 -8.688499 0.000000
								CHANNELS 3 Xrotation Yrotation Zrotation
								End Site
								{
									OFFSET 0.000000 8.688499 0.000000
								}
							}
						}
					}
				}
				JOINT newVegas:RightShoulder
				{
					OFFSET -15.263000 10.923401 -0.547700
					CHANNELS 3 Xrotation Yrotation Zrotation
					JOINT newVegas:RightArm
					{
						OFFSET -25.438599 -2.830597 -13.032500
						CHANNELS 3 Xrotation Yrotation Zrotation
						JOINT newVegas:RightForeArm
						{
							OFFSET -29.960503 0.000000 0.000000
							CHANNELS 3 Xrotation Yrotation Zrotation
							JOINT newVegas:RightHand
							{
								OFFSET -27.849251 0.000000 0.000000
								CHANNELS 3 Xrotation Yrotation Zrotation
								JOINT newVegas:RightHandThumb1
								{
									OFFSET -4.487587 -3.305161 6.305391
									CHANNELS 3 Xrotation Yrotation Zrotation
									JOINT newVegas:RightHandThumb2
									{
										OFFSET -5.480453 -3.164139 3.164143
										CHANNELS 3 Xrotation Yrotation Zrotation
										JOINT newVegas:RightHandThumb3
										{
											OFFSET -5.159721 -2.978973 2.978967
											CHANNELS 3 Xrotation Yrotation Zrotation
											End Site
											{
												OFFSET -2.494507 5.926697 1.738678
											}
										}
									}
								}
								JOINT newVegas:RightHandIndex1
								{
									OFFSET -18.578728 -0.527832 5.208049
									CHANNELS 3 Xrotation Yrotation Zrotation
									JOINT newVegas:RightHandIndex2
									{
										OFFSET -3.192009 0.000000 0.000000
										CHANNELS 3 Xrotation Yrotation Zrotation
										JOINT newVegas:RightHandIndex3
										{
											OFFSET -3.835129 0.000000 0.000000
											CHANNELS 3 Xrotation Yrotation Zrotation
											End Site
											{
												OFFSET 0.034599 3.816971 0.371180
											}
										}
									}
								}
								JOINT newVegas:RightHandMiddle1
								{
									OFFSET -18.476105 0.000000 0.000000
									CHANNELS 3 Xrotation Yrotation Zrotation
									JOINT newVegas:RightHandMiddle2
									{
										OFFSET -3.324875 0.000000 0.000000
										CHANNELS 3 Xrotation Yrotation Zrotation
										JOINT newVegas:RightHandMiddle3
										{
											OFFSET -4.596550 0.000000 0.000000
											CHANNELS 3 Xrotation Yrotation Zrotation
											End Site
											{
												OFFSET -0.057701 4.578827 0.399218
											}
										}
									}
								}
								JOINT newVegas:RightHandRing1
								{
									OFFSET -17.732719 0.121887 -4.201567
									CHANNELS 3 Xrotation Yrotation Zrotation
									JOINT newVegas:RightHandRing2
									{
										OFFSET -2.733170 0.000000 0.000000
										CHANNELS 3 Xrotation Yrotation Zrotation
										JOINT newVegas:RightHandRing3
										{
											OFFSET -3.178268 0.000000 0.000000
											CHANNELS 3 Xrotation Yrotation Zrotation
											End Site
											{
												OFFSET -0.119102 3.170624 0.185394
											}
										}
									}
								}
								JOINT newVegas:RightHandPinky1
								{
									OFFSET -15.989624 -0.606689 -7.535461
									CHANNELS 3 Xrotation Yrotation Zrotation
									JOINT newVegas:RightHandPinky2
									{
										OFFSET -2.538986 0.000000 0.000000
										CHANNELS 3 Xrotation Yrotation Zrotation
										JOINT newVegas:RightHandPinky3
										{
											OFFSET -2.593102 0.000000 0.000000
											CHANNELS 3 Xrotation Yrotation Zrotation
											End Site
											{
												OFFSET 0.150902 2.584198 0.152708
											}
										}
									}
								}
							}
							JOINT newVegas:Right_CapeC
							{
								OFFSET -15.715958 -8.608795 -6.935905
								CHANNELS 3 Xrotation Yrotation Zrotation
								JOINT newVegas:Right_CapeC1
								{
									OFFSET 0.000000 -8.688499 0.000000
									CHANNELS 3 Xrotation Yrotation Zrotation
									End Site
									{
										OFFSET 0.000000 8.688499 0.000000
									}
								}
							}
							JOINT newVegas:Right_Sleeve
							{
								OFFSET -0.267448 -0.649994 0.577675
								CHANNELS 3 Xrotation Yrotation Zrotation
								End Site
								{
									OFFSET 0.000000 15.991302 0.000000
								}
							}
						}
						JOINT newVegas:Right_CapeA
						{
							OFFSET -5.115540 -8.608795 -10.395824
							CHANNELS 3 Xrotation Yrotation Zrotation
							JOINT newVegas:Right_CapeA1
							{
								OFFSET 0.000000 -8.688499 0.000000
								CHANNELS 3 Xrotation Yrotation Zrotation
								End Site
								{
									OFFSET 0.000000 8.688499 0.000000
								}
							}
						}
						JOINT newVegas:Right_CapeB
						{
							OFFSET -26.118187 -8.608795 -7.079266
							CHANNELS 3 Xrotation Yrotation Zrotation
							JOINT newVegas:Right_CapeB1
							{
								OFFSET 0.000000 -8.688499 0.000000
								CHANNELS 3 Xrotation Yrotation Zrotation
								End Site
								{
									OFFSET 0.000000 8.688499 0.000000
								}
							}
						}
					}
				}
				JOINT newVegas:Left_Collar
				{
					OFFSET 18.625099 8.655502 8.828100
					CHANNELS 3 Xrotation Yrotation Zrotation
					JOINT newVegas:Left_Collar1
					{
						OFFSET 14.783401 10.540405 -1.259500
						CHANNELS 3 Xrotation Yrotation Zrotation
						End Site
						{
							OFFSET 0.000000 18.199875 0.000000
						}
					}
				}
				JOINT newVegas:Collar_Back
				{
					OFFSET 0.000000 15.630707 -20.132601
					CHANNELS 3 Xrotation Yrotation Zrotation
					End Site
					{
						OFFSET 0.000000 22.523010 0.000000
					}
				}
				JOINT newVegas:Left_Peck
				{
					OFFSET 17.239599 -5.132599 25.482599
					CHANNELS 3 Xrotation Yrotation Zrotation
					End Site
					{
						OFFSET 0.000000 22.523010 0.000000
					}
				}
				JOINT newVegas:Right_Peck
				{
					OFFSET -17.239599 -5.132202 25.482599
					CHANNELS 3 Xrotation Yrotation Zrotation
					End Site
					{
						OFFSET 0.000000 22.523010 0.000000
					}
				}
				JOINT newVegas:Right_Collar
				{
					OFFSET -18.625099 8.655792 8.828100
					CHANNELS 3 Xrotation Yrotation Zrotation
					JOINT newVegas:Right_Collar1
					{
						OFFSET -14.783401 10.539993 -1.259500
						CHANNELS 3 Xrotation Yrotation Zrotation
						End Site
						{
							OFFSET 0.000000 18.199631 0.000000
						}
					}
				}
			}
		}
		JOINT newVegas:Belly
		{
			OFFSET 0.000000 -6.540398 9.014299
			CHANNELS 3 Xrotation Yrotation Zrotation
			End Site
			{
				OFFSET 0.000000 11.566666 0.000000
			}
		}
	}
	JOINT newVegas:ElvisFacialAnim_Joint
	{
		OFFSET 1.000000 -95.330101 -8.825800
		CHANNELS 3 Xrotation Yrotation Zrotation
		End Site
		{
			OFFSET 0.000000 35.315800 0.000000
		}
	}
}
MOTION
Frames: 4
Frame Time: 0.033333
38.830330 113.112328 29.908129 53.886238 -61.725724 57.091492 -0.000002 0.000002 -0.000001 -36.504486 5.266128 15.139294 13.587694 -11.857442 -1.367077 31.149037 -3.439171 -15.762074 0.000002 0.000000 -0.000001 0.000001 0.000001 0.000002 -22.931588 -3.293245 -27.133037 13.264650 17.026480 2.315629 6.471028 4.137977 47.798193 0.000001 -0.000001 -0.000000 0.000000 0.000000 -0.000000 3.469891 -1.184431 -3.235417 6.876366 -2.469266 -6.267662 6.876371 -2.469253 -6.267663 -4.086725 0.992844 -0.998492 -4.086732 0.992835 -0.998497 0.000002 0.000001 -0.000000 -4.086734 0.992892 -0.998500 -4.086717 0.992804 -0.998487 -0.000001 0.000002 -0.000000 0.000002 0.000001 -0.000001 3.985157 1.430163 1.794471 -33.505469 28.290936 -18.907839 -3.683760 -151.400350 1.080045 37.692539 2.840694 -1.851186 -9.618710 -5.248509 2.654570 -0.397339 -0.132246 1.902316 0.000000 -0.000001 -0.000001 2.656866 -4.107335 -11.594547 0.459663 0.380668 -21.530698 0.000001 0.000001 0.000003 1.418795 2.372072 -10.846863 0.327205 -1.488763 -18.630485 0.000001 -0.000001 -0.000001 1.783057 10.505309 -11.157318 0.371500 -2.889431 -21.126033 0.000000 0.000001 -0.000000 1.337661 21.760214 -12.009841 1.346739 -3.561134 -19.790900 -0.000001 -0.000005 0.000002 -0.000000 -0.000000 0.000001 -0.000000 -0.000000 0.000001 -0.000001 -0.000000 0.000001 0.000001 0.000003 0.000002 0.000001 0.000003 0.000001 0.000001 0.000003 0.000002 -0.000000 0.000003 0.000001 -1.520971 -2.444061 -15.024724 -61.503039 -14.294316 -0.372419 -0.176850 148.026045 0.069706 -24.636320 -22.218581 61.290163 -5.777801 14.259505 10.069127 -0.383384 -4.981283 3.743951 -0.000001 0.000000 0.000001 -0.550283 6.527326 47.475542 1.854569 -2.331541 64.826992 -0.000001 0.000002 0.000001 -5.917009 0.314319 78.225808 -0.691513 1.978992 46.908500 0.000000 -0.000003 -0.000000 -8.388627 0.893769 96.055921 -2.177517 5.026078 44.161705 0.000000 -0.000003 -0.000001 -2.587429 1.671772 99.259458 -1.717492 7.228443 20.825802 -0.000000 0.000003 -0.000000 -0.000000 0.000001 -0.000000 -0.000000 -0.000002 0.000002 -0.000000 0.000001 0.000000 0.000000 0.000000 0.000000 0.000000 0.000001 -0.000000 0.000000 0.000000 0.000000 0.000000 0.000001 -0.000000 0.000000 0.000002 -0.000001 0.000000 0.000002 -0.000001 0.000000 0.000002 -0.000001 0.000000 0.000002 -0.000001 0.000000 0.000002 -0.000001 0.000000 0.000002 -0.000001 0.000000 0.000002 -0.000001 0.000001 0.000001 -0.000000 -0.000002 0.000002 -0.000001 
39.600872 102.364540 32.874146 39.680404 -63.669070 47.088383 -0.000001 -0.000000 -0.000000 -33.436655 6.342076 12.917795 8.604294 -12.605958 -1.077202 38.529930 -4.642195 -13.658175 0.000001 -0.000001 0.000000 -0.000000 -0.000000 0.000001 -24.150162 -2.062681 -29.215468 20.508053 20.844153 2.464489 -2.412085 -0.999545 42.889165 -0.000001 -0.000002 -0.000004 0.000002 -0.000003 0.000000 3.522366 -1.429256 -2.515695 6.949101 -3.249971 -5.641990 6.949094 -3.249944 -5.642004 -3.733074 0.851050 -1.330409 -3.733062 0.851049 -1.330408 -0.000001 -0.000002 0.000001 -3.733066 0.851062 -1.330410 -3.733054 0.851049 -1.330409 -0.000002 0.000001 0.000000 -0.000001 -0.000002 0.000001 4.588237 0.020825 3.124138 -44.225454 23.775146 -14.535189 -5.512164 -150.966373 1.786634 29.642150 7.098028 -7.934767 -6.822667 -5.824594 1.329352 -0.278194 1.019125 1.930657 0.000000 -0.000001 -0.000003 2.539324 -4.375715 -10.870593 0.129214 0.777204 -23.560847 0.000000 -0.000001 0.000000 1.074385 2.969075 -9.897190 -0.134837 -1.394541 -21.419542 0.000001 -0.000000 -0.000001 1.403169 10.492087 -11.157728 -0.114518 -2.853189 -24.143829 0.000000 0.000001 0.000001 0.663710 22.129804 -11.526161 0.696307 -4.090222 -22.448578 0.000001 -0.000003 -0.000001 0.000001 0.000002 -0.000000 0.000001 0.000002 -0.000000 0.000000 0.000002 -0.000000 -0.000000 0.000001 0.000001 0.000000 0.000000 0.000002 -0.000000 0.000001 0.000001 -0.000000 -0.000000 0.000001 -1.722912 -2.283475 -15.735480 -68.846640 -2.609687 -9.369817 -0.217790 134.735453 0.091207 -28.401552 -25.843892 54.146991 0.229706 6.963830 18.352974 0.891928 -6.979794 3.640354 0.000001 -0.000000 -0.000001 -0.879949 7.900971 47.075416 1.954110 -2.348142 66.709624 -0.000000 -0.000000 -0.000004 -6.546725 0.952425 69.365489 -1.749968 2.964157 71.397245 0.000000 -0.000003 -0.000000 -7.871592 0.868567 95.779162 -3.267661 5.768360 55.583475 -0.000001 -0.000001 -0.000001 -3.144455 2.169283 107.195523 -3.783511 9.008336 34.759413 0.000001 0.000003 0.000000 -0.000004 -0.000001 0.000001 -0.000000 -0.000001 -0.000000 -0.000004 -0.000002 0.000001 0.000000 -0.000001 -0.000003 0.000000 0.000000 -0.000003 0.000000 -0.000001 -0.000003 0.000000 -0.000000 -0.000003 -0.000003 0.000001 -0.000001 -0.000003 0.000001 -0.000001 -0.000003 0.000001 -0.000001 -0.000003 0.000001 -0.000001 -0.000003 0.000001 -0.000001 -0.000003 0.000001 -0.000001 -0.000003 0.000001 -0.000001 0.000001 -0.000001 0.000000 -0.000001 -0.000000 -0.000000 
41.280365 93.909142 35.405445 30.601723 -64.939533 37.026561 0.000001 0.000001 -0.000000 -32.086521 -1.781028 12.058643 10.351444 -13.452794 -0.749198 36.129792 -1.226417 -11.140527 0.000002 0.000001 -0.000001 0.000000 0.000001 0.000001 -25.654018 0.659590 -22.339626 35.029516 21.901925 2.882922 -18.895570 -5.676756 17.259145 0.000001 0.000000 -0.000002 0.000003 -0.000003 0.000001 3.531662 -1.342329 -0.956498 6.984300 -3.184863 -3.260967 6.984298 -3.184850 -3.260977 -3.320697 0.635361 -1.513327 -3.320799 0.635387 -1.513376 0.000001 -0.000000 0.000001 -3.320381 0.635350 -1.513333 -3.320928 0.635267 -1.513309 -0.000001 -0.000001 -0.000000 0.000001 -0.000000 0.000001 5.304392 -1.322936 4.933461 -52.362751 17.471137 -11.796576 -6.562934 -147.928811 1.918754 24.962753 13.492460 -9.644927 -4.268922 -6.552895 0.070330 -0.123229 1.970555 1.989101 0.000003 -0.000002 -0.000003 2.558846 -4.748100 -10.845235 -0.051185 1.058892 -25.403727 -0.000001 -0.000001 -0.000001 0.895978 3.433578 -9.527089 -0.441063 -1.371726 -24.024764 0.000001 -0.000000 -0.000001 1.178076 10.432571 -11.147223 -0.439057 -2.869638 -26.763091 0.000001 -0.000002 0.000000 0.145771 22.471413 -10.999682 0.141810 -4.629201 -24.777614 -0.000002 -0.000003 -0.000001 0.000001 0.000001 -0.000000 0.000001 0.000001 -0.000000 0.000001 0.000001 -0.000001 -0.000001 0.000002 0.000002 -0.000001 0.000001 0.000001 -0.000001 0.000002 0.000002 -0.000001 0.000002 0.000001 -2.068051 -3.052626 -17.329653 -64.555185 10.877313 -14.340260 -0.348824 114.178578 0.197459 -23.433829 -20.445034 41.850232 1.942789 6.549428 21.822104 1.064243 -7.214720 3.579876 -0.000003 -0.000001 -0.000002 -1.684871 8.466851 54.157567 2.056024 -2.359898 68.624973 -0.000003 -0.000002 0.000003 -7.828023 0.830662 73.995592 -2.340606 3.240690 82.645002 -0.000000 -0.000000 -0.000000 -8.717604 0.733336 100.799474 -3.727913 5.998473 59.912589 -0.000000 -0.000001 -0.000001 -2.951371 2.124261 111.365353 -6.205556 10.205341 48.562976 0.000001 0.000003 -0.000000 -0.000002 -0.000001 0.000002 -0.000001 -0.000000 -0.000001 -0.000002 -0.000001 0.000003 -0.000001 0.000001 0.000001 -0.000001 0.000002 0.000001 -0.000001 0.000001 0.000001 -0.000001 0.000002 0.000002 -0.000000 -0.000000 -0.000000 -0.000000 -0.000000 -0.000000 -0.000000 -0.000000 -0.000000 -0.000000 -0.000000 -0.000000 -0.000000 -0.000000 -0.000000 -0.000000 -0.000000 -0.000000 -0.000000 -0.000000 -0.000000 -0.000000 0.000000 -0.000000 0.000001 0.000001 -0.000000 
43.657913 86.422516 36.385899 21.853646 -65.283488 30.267198 0.000000 -0.000000 -0.000000 -36.361352 0.214721 15.138571 29.963374 -12.561395 -0.926264 5.308045 -6.684985 -9.896036 0.000001 0.000000 -0.000001 0.000000 -0.000001 -0.000001 -30.500900 4.113117 -19.647500 58.746416 21.539294 4.512623 -38.534042 -5.643779 -7.067873 0.000000 -0.000000 0.000000 -0.000004 -0.000000 0.000000 3.507512 -1.778058 -0.403072 6.923463 -3.879547 -2.397400 6.923472 -3.879526 -2.397400 -3.005336 0.326990 -1.297167 -3.005343 0.327013 -1.297171 0.000002 0.000002 -0.000000 -3.005414 0.326976 -1.297162 -3.005267 0.327003 -1.297167 -0.000001 -0.000001 0.000000 0.000002 0.000002 -0.000000 6.337686 -3.148135 9.064606 -59.710846 18.100123 -8.388178 -7.431710 -141.487505 2.244504 19.951389 12.735591 -8.329306 -1.792675 -7.217142 -1.250433 -0.084667 2.315430 2.018347 -0.000000 -0.000003 -0.000001 2.715700 -5.265750 -12.267062 -0.064962 1.141795 -27.341824 0.000001 -0.000001 -0.000000 0.993572 3.669729 -10.448965 -0.575836 -1.526914 -26.706982 -0.000001 -0.000000 -0.000000 1.172098 10.262219 -11.365005 -0.576118 -3.036154 -29.164631 -0.000001 -0.000001 0.000000 -0.113772 22.777665 -10.600976 -0.250521 -5.225153 -26.688346 -0.000000 -0.000002 -0.000000 -0.000001 -0.000001 -0.000000 -0.000001 -0.000001 -0.000000 -0.000002 -0.000000 -0.000001 -0.000001 0.000000 0.000000 -0.000001 0.000000 -0.000000 -0.000001 0.000000 0.000000 -0.000001 0.000000 -0.000000 -2.495681 -3.295053 -21.309077 -57.785053 22.675941 -16.971362 -1.423404 94.326770 1.247571 -20.671952 -14.820891 24.987690 3.235624 6.728051 24.693842 1.142734 -7.303259 3.502168 0.000001 -0.000003 -0.000003 -2.720298 8.942277 62.588800 2.194050 -2.365981 71.391917 -0.000000 0.000000 -0.000002 -8.698412 0.334247 80.036642 -2.325316 3.226181 82.750624 -0.000001 -0.000001 0.000000 -9.475241 0.527976 103.986044 -3.846114 6.054671 60.872914 -0.000001 0.000001 -0.000001 -1.297018 1.051565 108.386844 -7.113544 10.490389 52.990609 0.000001 0.000002 -0.000002 0.000000 0.000001 -0.000001 -0.000000 0.000000 0.000000 -0.000002 0.000001 -0.000002 -0.000002 -0.000001 0.000002 -0.000003 -0.000001 0.000003 -0.000002 -0.000001 0.000002 -0.000003 -0.000001 0.000004 -0.000000 -0.000000 0.000000 -0.000000 -0.000000 0.000000 -0.000000 -0.000000 0.000000 -0.000000 -0.000000 0.000000 -0.000000 -0.000000 0.000000 -0.000000 -0.000000 0.000000 -0.000000 -0.000000 0.000000 0.000001 -0.000000 -0.000000 0.000000 -0.000000 -0.000000 
